<?xml version="1.0" encoding="UTF-8"?>
<svg id="Layer_2" data-name="Layer 2" xmlns="http://www.w3.org/2000/svg" viewBox="0 0 500 500">
  <g id="Layer_1-2" data-name="Layer 1">
    <path d="M236.68,213.45c.07,2.4.01,4.81.01,7.21,0,2.19-.04,4.39,0,6.59.15,6.85-4.37,12.51-11.53,13.95-3.59.72-7.17.59-10.6-.78-4.26-1.7-7.18-4.83-8.74-9.07-2.7-7.37-2.75-14.82.38-22.05,2.6-6.02,7.39-9.21,13.99-9.54,3.9-.19,7.58.54,10.81,2.85,3.71,2.65,5.55,6.33,5.68,10.85ZM92.38,237.49c2.71,2.5,5.95,3.79,9.62,4.07,7.38.57,13.45-2.79,16.49-9.39,1.68-3.64,2.23-7.5,2.21-11.8.02-2.2-.22-4.69-.83-7.13-.91-3.62-2.46-6.89-5.27-9.43-4.34-3.92-9.51-4.78-15.05-3.64-5.67,1.17-9.36,4.81-11.4,10.1-2.27,5.88-2.32,11.93-.93,18.01.82,3.55,2.44,6.71,5.15,9.22ZM372.01,224.25c-4.18.71-8.36,1.41-12.53,2.13-1.85.32-3.72.53-5.45,1.36-1.84.88-3.38,2.08-4.17,4.04-1.86,4.6.69,10.01,5.5,11.69,2.36.83,4.79.88,7.24.58,5.29-.66,9.25-4.73,9.59-10.06.18-2.75.09-5.51.11-8.27,0-.48,0-.95,0-1.47-.17,0-.23,0-.29,0ZM500,0v443.61L0,500V0h500ZM372.2,212.17c-5.74.84-11.49,1.65-17.23,2.53-2.78.43-5.59.83-8.31,1.53-4.32,1.11-8.13,3.23-10.99,6.74-4.31,5.3-5.21,11.42-3.53,17.86,1.64,6.29,5.8,10.67,11.49,13.63,4.64,2.4,9.63,3.13,14.79,2.66,5.29-.49,10.02-2.33,13.89-6.1.79-.77,1.64-1.48,2.46-2.21.08.15.26.45.45.75,2.66,4.36,6.49,6.92,11.58,7.57.44.06.67-.05.9-.42,1.59-2.56,3.2-5.09,4.81-7.64.82-1.3,1.65-2.61,2.47-3.92-.81-.48-1.59-.93-2.35-1.39-2.39-1.44-3.41-3.57-3.41-6.34.02-10.19,0-20.37-.04-30.56-.01-3.18-.47-6.3-1.77-9.23-2.72-6.13-7.49-9.95-13.85-11.79-6.82-1.97-13.78-2.03-20.75-.96-5.93.91-11.55,2.82-16.97,5.34-.92.43-1.82.9-2.75,1.37,2.2,4.3,4.36,8.51,6.53,12.76.25-.11.44-.19.63-.28,4.04-2.07,8.29-3.53,12.72-4.5,4.02-.89,8.04-1.07,12.03.08,6.09,1.76,7.78,7.28,7.2,12.54ZM262.4,232.89c0,1.98.16,3.98.53,5.92,1.15,6,4.05,10.97,9.23,14.35,6.68,4.36,13.97,4.96,21.55,3.07,4.13-1.03,7.48-3.45,10.5-6.36.41-.39.83-.77,1.37-1.27v7.21h16.83v-70.19h-16.86v.86c0,12.61.03,25.22-.03,37.83,0,1.89-.24,3.8-.61,5.66-.65,3.22-2.07,6.1-4.64,8.26-3.32,2.8-7.21,3.56-11.41,2.88-4-.64-6.76-2.89-8.27-6.66-.95-2.36-1.28-4.84-1.28-7.37,0-13.55,0-27.11,0-40.66v-.82h-16.94v.77c0,15.5-.02,31,.02,46.49ZM140.25,201.52h11.39v55.73h16.93v-55.74h13.7v-14.49h-13.67c-.02-.18-.04-.28-.04-.38,0-2.09-.05-4.18.03-6.27.03-.83.23-1.72.58-2.47,1.03-2.22,3-3.11,5.29-3.36,2.86-.32,5.72-.08,8.57.18.66.06,1.31.13,1.99.2.46-4.74.92-9.4,1.38-14.07-.21-.04-.37-.09-.53-.11-3.42-.27-6.83-.58-10.25-.78-3.77-.22-7.52-.07-11.2.89-3.21.84-6.13,2.22-8.46,4.65-2.86,2.98-4.16,6.63-4.29,10.68-.1,3.34-.03,6.69-.04,10.04v.81h-11.39v14.49ZM68.99,222.51c.15,4.25.87,8.39,2.33,12.39,3.37,9.18,9.41,15.89,18.49,19.69,6.71,2.81,13.71,3.29,20.8,1.94,8.91-1.7,16.02-6.3,21.12-13.85,3.64-5.38,5.55-11.38,6.11-17.82.53-6.09,0-12.07-2.03-17.86-3.44-9.82-9.83-16.89-19.62-20.64-6.05-2.32-12.34-2.74-18.7-1.72-10.05,1.61-17.83,6.74-23.12,15.46-3.83,6.31-5.38,13.26-5.38,20.59,0,.61-.02,1.21,0,1.82ZM226.54,264.53H68.98v16.84h157.56v-16.84ZM253.08,185.6h-16.93v7.3c-.26-.27-.44-.44-.6-.63-2.28-2.59-4.99-4.63-8.11-6.11-3.74-1.78-7.73-2.17-11.81-1.98-6.63.31-12.45,2.67-17.44,7.04-4.28,3.75-7.18,8.45-9.09,13.77-3,8.34-3.42,16.87-1.67,25.51,1.43,7.05,4.4,13.37,9.65,18.43,6.68,6.44,14.73,8.99,23.89,8.06,5.7-.58,10.41-3.16,14.18-7.47.29-.33.61-.65,1.03-1.09v33.67h16.89v-96.49ZM431.02,264.54h-168.65v16.82h168.65v-16.82ZM431.02,256.32c-.44-4.75-.88-9.43-1.32-14.15-.27.04-.47.09-.67.1-1.56.11-3.12.33-4.67.28-2.03-.08-3.78-.87-4.59-2.9-.31-.77-.46-1.66-.46-2.5-.02-25.01-.02-50.03-.02-75.04v-.8h-16.94v.83c0,26.56,0,53.12,0,79.68,0,1.23.07,2.47.26,3.68.75,4.79,3.27,8.28,7.77,10.25,2.37,1.03,4.88,1.54,7.45,1.49,3.34-.06,6.68-.3,10.01-.5,1.05-.06,2.09-.27,3.18-.42Z"/>
  </g>
</svg>